<mxfile host="app.diagrams.net" agent="Mozilla/5.0 (Windows NT 10.0; Win64; x64; rv:138.0) Gecko/20100101 Firefox/138.0" version="27.0.5">
  <diagram name="Page-1" id="aPj3fm0xVrzEmFb7kWuA">
    <mxGraphModel dx="925" dy="554" grid="1" gridSize="10" guides="1" tooltips="1" connect="1" arrows="1" fold="1" page="1" pageScale="1" pageWidth="3300" pageHeight="4681" math="0" shadow="0">
      <root>
        <mxCell id="0" />
        <mxCell id="1" parent="0" />
        <mxCell id="8IgsMNsf870aP1cnla1Y-3" style="edgeStyle=orthogonalEdgeStyle;rounded=0;orthogonalLoop=1;jettySize=auto;html=1;exitX=1;exitY=0.5;exitDx=0;exitDy=0;entryX=0;entryY=0.5;entryDx=0;entryDy=0;" edge="1" parent="1" source="8IgsMNsf870aP1cnla1Y-1" target="8IgsMNsf870aP1cnla1Y-2">
          <mxGeometry relative="1" as="geometry" />
        </mxCell>
        <mxCell id="8IgsMNsf870aP1cnla1Y-1" value="data&#xa;Raw Medical&#xa;Datasets" style="rectangle;fillColor=#fff2cc;strokeColor=#d6b656;" name="data" vertex="1" parent="1">
          <mxGeometry x="340" y="230" width="100" height="50" as="geometry" />
        </mxCell>
        <mxCell id="8IgsMNsf870aP1cnla1Y-5" style="edgeStyle=orthogonalEdgeStyle;rounded=0;orthogonalLoop=1;jettySize=auto;html=1;exitX=1;exitY=0.5;exitDx=0;exitDy=0;entryX=0.5;entryY=0;entryDx=0;entryDy=0;" edge="1" parent="1" source="8IgsMNsf870aP1cnla1Y-2" target="8IgsMNsf870aP1cnla1Y-4">
          <mxGeometry relative="1" as="geometry" />
        </mxCell>
        <mxCell id="8IgsMNsf870aP1cnla1Y-2" value="transform:embed" style="rounded=1;whiteSpace=wrap;html=1;arcSize=50;fillColor=#f8cecc;strokeColor=#b85450;" name="transform" vertex="1" parent="1">
          <mxGeometry x="520" y="230" width="100" height="50" as="geometry" />
        </mxCell>
        <mxCell id="8IgsMNsf870aP1cnla1Y-7" style="edgeStyle=orthogonalEdgeStyle;rounded=0;orthogonalLoop=1;jettySize=auto;html=1;exitX=0.5;exitY=1;exitDx=0;exitDy=0;entryX=1;entryY=0.5;entryDx=0;entryDy=0;" edge="1" parent="1" source="8IgsMNsf870aP1cnla1Y-4" target="8IgsMNsf870aP1cnla1Y-6">
          <mxGeometry relative="1" as="geometry" />
        </mxCell>
        <mxCell id="8IgsMNsf870aP1cnla1Y-4" value="data&#xa;Structured&#xa;Datasets" style="rectangle;fillColor=#fff2cc;strokeColor=#d6b656;" name="data" vertex="1" parent="1">
          <mxGeometry x="650" y="330" width="100" height="50" as="geometry" />
        </mxCell>
        <mxCell id="8IgsMNsf870aP1cnla1Y-11" style="edgeStyle=orthogonalEdgeStyle;rounded=0;orthogonalLoop=1;jettySize=auto;html=1;exitX=0;exitY=0.5;exitDx=0;exitDy=0;entryX=0.5;entryY=0;entryDx=0;entryDy=0;" edge="1" parent="1" source="8IgsMNsf870aP1cnla1Y-6" target="8IgsMNsf870aP1cnla1Y-8">
          <mxGeometry relative="1" as="geometry" />
        </mxCell>
        <mxCell id="8IgsMNsf870aP1cnla1Y-6" value="transform:embed" style="rounded=1;whiteSpace=wrap;html=1;arcSize=50;fillColor=#f8cecc;strokeColor=#b85450;" name="transform" vertex="1" parent="1">
          <mxGeometry x="520" y="430" width="100" height="50" as="geometry" />
        </mxCell>
        <mxCell id="8IgsMNsf870aP1cnla1Y-12" style="edgeStyle=orthogonalEdgeStyle;rounded=0;orthogonalLoop=1;jettySize=auto;html=1;exitX=0.5;exitY=1;exitDx=0;exitDy=0;entryX=0;entryY=0.5;entryDx=0;entryDy=0;" edge="1" parent="1" source="8IgsMNsf870aP1cnla1Y-8" target="8IgsMNsf870aP1cnla1Y-10">
          <mxGeometry relative="1" as="geometry" />
        </mxCell>
        <mxCell id="8IgsMNsf870aP1cnla1Y-8" value="data&#xa;Features for&#xa;Each Condition" style="rectangle;fillColor=#fff2cc;strokeColor=#d6b656;" name="data" vertex="1" parent="1">
          <mxGeometry x="390" y="530" width="100" height="50" as="geometry" />
        </mxCell>
        <mxCell id="8IgsMNsf870aP1cnla1Y-10" value="infer:deduce" style="rounded=1;whiteSpace=wrap;html=1;arcSize=50;fillColor=#bac8d3;strokeColor=#23445d;" name="infer:deduce" vertex="1" parent="1">
          <mxGeometry x="520" y="630" width="100" height="50" as="geometry" />
        </mxCell>
        <mxCell id="8IgsMNsf870aP1cnla1Y-17" style="edgeStyle=orthogonalEdgeStyle;rounded=0;orthogonalLoop=1;jettySize=auto;html=1;exitX=0.5;exitY=1;exitDx=0;exitDy=0;entryX=0.5;entryY=0;entryDx=0;entryDy=0;" edge="1" parent="1" source="8IgsMNsf870aP1cnla1Y-13" target="8IgsMNsf870aP1cnla1Y-16">
          <mxGeometry relative="1" as="geometry" />
        </mxCell>
        <mxCell id="8IgsMNsf870aP1cnla1Y-13" value="data&#xa;Clusters of&#xa;Cases" style="rectangle;fillColor=#fff2cc;strokeColor=#d6b656;" name="data" vertex="1" parent="1">
          <mxGeometry x="700" y="630" width="100" height="50" as="geometry" />
        </mxCell>
        <mxCell id="8IgsMNsf870aP1cnla1Y-15" value="&lt;div&gt;error&lt;/div&gt;&lt;div&gt;--&amp;gt;&lt;/div&gt;" style="text;html=1;align=center;verticalAlign=middle;whiteSpace=wrap;rounded=0;dashed=1;fillColor=#f5f5f5;fontColor=#333333;strokeColor=#666666;strokeWidth=2;" name="text" vertex="1" parent="1">
          <mxGeometry x="620" y="640" width="80" height="30" as="geometry" />
        </mxCell>
        <mxCell id="8IgsMNsf870aP1cnla1Y-19" style="edgeStyle=orthogonalEdgeStyle;rounded=0;orthogonalLoop=1;jettySize=auto;html=1;exitX=0;exitY=0.5;exitDx=0;exitDy=0;entryX=1;entryY=0.5;entryDx=0;entryDy=0;" edge="1" parent="1" source="8IgsMNsf870aP1cnla1Y-16" target="8IgsMNsf870aP1cnla1Y-18">
          <mxGeometry relative="1" as="geometry" />
        </mxCell>
        <mxCell id="8IgsMNsf870aP1cnla1Y-16" value="generate:train" style="rounded=1;whiteSpace=wrap;html=1;arcSize=50;fillColor=#e1d5e7;strokeColor=#9673a6;" name="generate:train" vertex="1" parent="1">
          <mxGeometry x="700" y="760" width="100" height="50" as="geometry" />
        </mxCell>
        <mxCell id="8IgsMNsf870aP1cnla1Y-18" value="model:hybrid&#xa;Fuzzy Decision&#xa;Tree" style="shape=hexagon;perimeter=hexagonPerimeter2;fillColor=#b0e3e6;strokeColor=#0e8088;" name="model" vertex="1" parent="1">
          <mxGeometry x="510" y="760" width="120" height="50" as="geometry" />
        </mxCell>
        <mxCell id="8IgsMNsf870aP1cnla1Y-24" style="edgeStyle=orthogonalEdgeStyle;rounded=0;orthogonalLoop=1;jettySize=auto;html=1;exitX=0.5;exitY=1;exitDx=0;exitDy=0;entryX=0.5;entryY=0;entryDx=0;entryDy=0;" edge="1" parent="1" source="8IgsMNsf870aP1cnla1Y-20" target="8IgsMNsf870aP1cnla1Y-23">
          <mxGeometry relative="1" as="geometry" />
        </mxCell>
        <mxCell id="8IgsMNsf870aP1cnla1Y-20" value="generate:train" style="rounded=1;whiteSpace=wrap;html=1;arcSize=50;fillColor=#e1d5e7;strokeColor=#9673a6;" name="generate:train" vertex="1" parent="1">
          <mxGeometry x="520" y="890" width="100" height="50" as="geometry" />
        </mxCell>
        <mxCell id="8IgsMNsf870aP1cnla1Y-22" value="&lt;div&gt;error&lt;/div&gt;&lt;div&gt;|&lt;/div&gt;&lt;div&gt;|&lt;/div&gt;&lt;div&gt;v&lt;/div&gt;" style="text;html=1;align=center;verticalAlign=middle;whiteSpace=wrap;rounded=0;dashed=1;fillColor=#f5f5f5;fontColor=#333333;strokeColor=#666666;strokeWidth=2;" name="text" vertex="1" parent="1">
          <mxGeometry x="555" y="810" width="30" height="80" as="geometry" />
        </mxCell>
        <mxCell id="8IgsMNsf870aP1cnla1Y-26" style="edgeStyle=orthogonalEdgeStyle;rounded=0;orthogonalLoop=1;jettySize=auto;html=1;exitX=0;exitY=0.5;exitDx=0;exitDy=0;entryX=1;entryY=0.5;entryDx=0;entryDy=0;" edge="1" parent="1" source="8IgsMNsf870aP1cnla1Y-23" target="8IgsMNsf870aP1cnla1Y-25">
          <mxGeometry relative="1" as="geometry" />
        </mxCell>
        <mxCell id="8IgsMNsf870aP1cnla1Y-23" value="model:hybrid&#xa;Optimized Set" style="shape=hexagon;perimeter=hexagonPerimeter2;fillColor=#b0e3e6;strokeColor=#0e8088;" name="model" vertex="1" parent="1">
          <mxGeometry x="510" y="1020" width="120" height="50" as="geometry" />
        </mxCell>
        <mxCell id="8IgsMNsf870aP1cnla1Y-28" style="edgeStyle=orthogonalEdgeStyle;rounded=0;orthogonalLoop=1;jettySize=auto;html=1;exitX=0;exitY=0.5;exitDx=0;exitDy=0;entryX=1;entryY=0.5;entryDx=0;entryDy=0;" edge="1" parent="1" source="8IgsMNsf870aP1cnla1Y-25" target="8IgsMNsf870aP1cnla1Y-27">
          <mxGeometry relative="1" as="geometry" />
        </mxCell>
        <mxCell id="8IgsMNsf870aP1cnla1Y-25" value="infer:deduce" style="rounded=1;whiteSpace=wrap;html=1;arcSize=50;fillColor=#bac8d3;strokeColor=#23445d;" name="infer:deduce" vertex="1" parent="1">
          <mxGeometry x="340" y="1020" width="100" height="50" as="geometry" />
        </mxCell>
        <mxCell id="8IgsMNsf870aP1cnla1Y-27" value="symbol&#xa;Condition" style="rectangle;fillColor=#dae8fc;strokeColor=#6c8ebf;" name="symbol" vertex="1" parent="1">
          <mxGeometry x="160" y="1020" width="100" height="50" as="geometry" />
        </mxCell>
        <mxCell id="8IgsMNsf870aP1cnla1Y-30" value="&lt;div&gt;error&lt;/div&gt;&lt;div&gt;|&lt;/div&gt;&lt;div&gt;|&lt;/div&gt;&lt;div&gt;v&lt;/div&gt;" style="text;html=1;align=center;verticalAlign=middle;whiteSpace=wrap;rounded=0;dashed=1;fillColor=#f5f5f5;fontColor=#333333;strokeColor=#666666;strokeWidth=2;" name="text" vertex="1" parent="1">
          <mxGeometry x="370" y="580" width="50" height="440" as="geometry" />
        </mxCell>
      </root>
    </mxGraphModel>
  </diagram>
</mxfile>
